<svg xmlns="http://www.w3.org/2000/svg" version="1.1" xmlns:xlink="http://www.w3.org/1999/xlink" xmlns:svgjs="http://svgjs.com/svgjs" width="1440" height="560" preserveAspectRatio="none" viewBox="0 0 1440 560"><g mask="url(&quot;#SvgjsMask1000&quot;)" fill="none"><rect width="1440" height="560" x="0" y="0" fill="#0e2a47"></rect><path d="M 0,21 C 57.6,56.4 172.8,174.8 288,198 C 403.2,221.2 460.8,133 576,137 C 691.2,141 748.8,219.2 864,218 C 979.2,216.8 1036.8,144.8 1152,131 C 1267.2,117.2 1382.4,145.4 1440,149L1440 560L0 560z" fill="#184a7e"></path><path d="M 0,380 C 96,410 288,545.8 480,530 C 672,514.2 768,314.2 960,301 C 1152,287.8 1344,431.4 1440,464L1440 560L0 560z" fill="#2264ab"></path></g><defs><mask id="SvgjsMask1000"><rect width="1440" height="560" fill="#ffffff"></rect></mask></defs></svg>